<svg xmlns="http://www.w3.org/2000/svg" viewBox="0 0 652.58 668.33"><defs><style>.cls-1{fill:#2a6f76;}</style></defs><g id="Layer_2" data-name="Layer 2"><g id="Layer_1-2" data-name="Layer 1"><path class="cls-1" d="M595.73,156.42H60.7c-1.33,0-2.65-.06-4-.15-.65,0-1.31-.1-2-.17a55.78,55.78,0,0,1-12.89-2.91c-13-4.2-21.62-11.53-27.32-20.84,0,0,0-.06-.07-.09a55.93,55.93,0,0,1-9.94-29.08c-.15-4.46-.32-9-.43-13.52,0-.13,0-.27,0-.41-.1-3.52-.17-7-.18-10.55,0-.66,0-1.33,0-2,0-3.26.1-6.53.2-9.77a2,2,0,0,0,0-.24c.1-3.52.22-7,.35-10.49a55.28,55.28,0,0,1,9.62-31.45C19.65,15.31,28.05,7.9,40.68,3.67A55.18,55.18,0,0,1,54.78.33C55.4.26,56,.21,56.67.15h.07C58.05.06,59.37,0,60.7,0h535a56.2,56.2,0,0,1,56.21,56.21C654,101.39,654.45,153.33,595.73,156.42Z"/><path class="cls-1" d="M591.79,412.91h-535c-1.32,0-2.65-.06-4-.16-.65,0-1.31-.09-2-.16A55.58,55.58,0,0,1,38,409.68c-13-4.2-21.63-11.53-27.33-20.84,0,0,0-.07-.07-.1A55.86,55.86,0,0,1,.62,359.67c-.15-4.46-.32-9-.43-13.52,0-.14,0-.28,0-.42-.1-3.52-.17-7-.18-10.54,0-.67,0-1.33,0-2,0-3.26.1-6.53.2-9.78a1.77,1.77,0,0,0,0-.23c.1-3.52.22-7,.35-10.5a55.28,55.28,0,0,1,9.62-31.45c5.52-9.44,13.92-16.86,26.55-21.08a54.77,54.77,0,0,1,14.1-3.34q.93-.1,1.89-.18h.07c1.31-.1,2.64-.15,4-.15h535A56.19,56.19,0,0,1,648,312.69C650.08,357.87,650.51,409.81,591.79,412.91Z"/><path class="cls-1" d="M595.73,668.33H60.7c-1.33,0-2.65-.06-4-.16-.65,0-1.31-.09-2-.16a55.78,55.78,0,0,1-12.89-2.91c-13-4.2-21.62-11.53-27.32-20.84,0,0,0-.07-.07-.1a55.86,55.86,0,0,1-9.94-29.07c-.15-4.46-.32-9-.43-13.52,0-.14,0-.28,0-.41-.1-3.53-.17-7-.18-10.55,0-.67,0-1.33,0-2,0-3.26.1-6.53.2-9.78a1.77,1.77,0,0,0,0-.23c.1-3.52.22-7,.35-10.5a55.28,55.28,0,0,1,9.62-31.45c5.52-9.44,13.92-16.86,26.55-21.08a54.77,54.77,0,0,1,14.1-3.34q.93-.11,1.89-.18h.07q2-.15,4-.15h535a56.19,56.19,0,0,1,56.21,56.2C654,613.29,654.45,665.23,595.73,668.33Z"/></g></g></svg>