<svg xmlns="http://www.w3.org/2000/svg" viewBox="0 0 1118.23 642.91"><defs><style>.cls-1{fill:#2a6f76;}.cls-2{fill:#172731;}.cls-3{fill:#d54f27;}</style></defs><g id="Layer_2" data-name="Layer 2"><g id="Layer_1-2" data-name="Layer 1"><path class="cls-1" d="M1098.36,129.63l-58.25,52.28h0c-56.19-54.35-166.09-54-221.86,0h0c-9.08-8.12-50.05-44.93-58.26-52.28C700.2,61,788.67,22.16,847.88,9.49,899.29-3.16,959-3.17,1010.4,9.49,1069.54,22.1,1158.15,61,1098.36,129.63Z"/><path class="cls-2" d="M269.07,47.16c1.92,33.64.31,70.12-42.49,71.81a113.3,113.3,0,0,0-113.29,113.3V417.39c-2.29,42.08-38.66,43.28-71.83,41.46A41.47,41.47,0,0,1,0,417.39V232.27A226.49,226.49,0,0,1,113.29,36C151.49,14,264.46-25.87,269.07,47.16Z"/><path class="cls-2" d="M740.83,241.38c.11-2.46.16-4.92.17-7.38V427.53a30.32,30.32,0,0,1-28.93,30.28c-.48,0-1,0-1.44,0-1.16-.1-2.37-.17-3.63-.2-3.21-.12-6.73-.06-10.45.07-4.79.15-9.9.41-15.1.56-4.32.13-8.69.18-13,.05-21-.7-40-6.06-40.74-30.29a233,233,0,0,0,46.72-36.33q3.88-3.91,7.59-8C717.12,345,738.71,294.3,740.83,241.38Z"/><path class="cls-2" d="M740.83,241.38c-.06,1.43-.13,2.86-.22,4.29,0,.22,0,.44,0,.66-.05.83-.1,1.65-.17,2.48-.1,1.39-.22,2.77-.35,4.16-.07.77-.14,1.54-.23,2.31s-.13,1.3-.21,2q-.32,2.75-.7,5.47c-.07.59-.16,1.17-.25,1.76q-1,6.85-2.45,13.63c-.32,1.51-.66,3-1,4.5q-1.05,4.49-2.29,8.93c-.41,1.47-.84,3-1.28,4.42-.23.79-.48,1.58-.73,2.37s-.42,1.35-.64,2q-1.74,5.4-3.75,10.7c-.29.76-.58,1.53-.88,2.29s-.56,1.42-.85,2.13-.57,1.42-.87,2.13-.59,1.41-.89,2.12l-.91,2.11-.93,2.09c-.32.7-.63,1.4-1,2.09s-.68,1.47-1,2.2-.62,1.3-.94,1.95-.61,1.25-.92,1.88q-2.28,4.56-4.76,9-.35.65-.72,1.29-1.68,3-3.47,5.95c-.36.61-.73,1.21-1.1,1.82q-1.5,2.41-3,4.8l-1.17,1.78q-3.39,5.1-7,10c-.48.66-1,1.31-1.47,2-1,1.3-2,2.58-3,3.86-.06.08-.13.16-.19.25,28.55-35.66,46.72-79.78,49.47-127.33.07-1.12.13-2.24.17-3.36V234C741,236.46,740.94,238.92,740.83,241.38Z"/><path class="cls-2" d="M733.16,173.59C689.33,6.31,475.46-51,354,72.06,231,193.49,288.29,407.36,455.58,451.17c62.07,17,122.68,6,172-23l.17-.1a233,233,0,0,0,46.72-36.33c.83-.84,1.65-1.68,2.47-2.53l.42-.43c.22-.22.43-.45.65-.68.74-.77,1.47-1.54,2.19-2.32l1.86-2c1.06-1.17,2.1-2.35,3.14-3.54l.11-.13c.53-.62,1.07-1.24,1.59-1.86l1.58-1.87c1-1.18,1.94-2.37,2.9-3.56.06-.09.13-.17.19-.25,1-1.28,2-2.56,3-3.86.5-.65,1-1.31,1.47-2q3.66-4.9,7-10c.4-.59.78-1.18,1.17-1.78q1.54-2.38,3-4.8c.37-.61.74-1.21,1.1-1.82q1.79-3,3.47-5.95.38-.65.72-1.29,2.48-4.46,4.76-9c.31-.63.62-1.25.92-1.88s.63-1.3.94-1.95.69-1.47,1-2.2.64-1.39,1-2.09l.93-2.09.91-2.11c.3-.71.6-1.41.89-2.12s.59-1.41.87-2.13.57-1.42.85-2.13.6-1.53.88-2.29q2-5.31,3.75-10.7c.22-.67.44-1.35.64-2s.5-1.58.73-2.37c.44-1.47.87-2.95,1.28-4.42q1.25-4.44,2.29-8.93c.35-1.49.69-3,1-4.5q1.44-6.76,2.45-13.63c.09-.59.18-1.17.25-1.76q.39-2.73.7-5.47.12-1,.21-2c.09-.77.16-1.54.23-2.31.13-1.39.25-2.77.35-4.16.07-.83.12-1.65.17-2.48,0-.22,0-.44,0-.66.09-1.43.16-2.86.22-4.29.11-2.46.16-4.92.17-7.38v8.07A222.81,222.81,0,0,0,733.16,173.59ZM594.36,312.37C485.26,415,331.5,261.21,434.15,152.16,543.24,49.51,697,203.33,594.36,312.37Z"/><path class="cls-2" d="M942.65,383.6c-2.53.1-5.08.13-7.64.13C937.55,383.72,940.1,383.67,942.65,383.6Z"/><path class="cls-2" d="M991.37,395.93c0-10.3-.17-20.36-.19-29.7C991.23,375.63,991.37,385.69,991.37,395.93Z"/><path class="cls-2" d="M933.57,383.72c-2.38,0-4.74,0-7.08-.14C928.84,383.65,931.21,383.7,933.57,383.72Z"/><path class="cls-2" d="M991.37,395.93v2.15c0,27.29-1,56-7.74,77-20.24,77.24-83,140-160.22,160.23-37.13,10.19-80.25,10.19-117.37,0-35.35-8.22-80-30.3-78.69-63.66-.42-10.54,3.76-22.26,14.39-35.07,49.07-57.46,66.62-9.2,123-9.69A113.31,113.31,0,0,0,878,413.56V342.62c0,1,0,1.92.11,2.87v.05c0,.46.08.92.13,1.37a40,40,0,0,0,2.42,10.21c3.06,9.15,8.43,15.23,15.27,19.23a40,40,0,0,0,22.78,7c2.51.09,5,.18,7.6.25h.17c2.34.1,4.7.14,7.08.14H935c2.56,0,5.11,0,7.64-.13h.3c3.28-.08,6.56-.2,9.79-.31a40.48,40.48,0,0,0,21.06-7.2l.07-.05c6.74-4.13,12-10.39,15.09-19.79a40.18,40.18,0,0,0,2.11-9.33c0-.47.09-1,.12-1.42.07-.95.11-1.91.11-2.87v8.51q-.09,3.81-.12,7.88c0,1.07,0,2.15,0,3.24,0,1.31,0,2.64,0,4C991.2,375.57,991.34,385.63,991.37,395.93Z"/><path class="cls-3" d="M933.57,383.72c-2.38,0-4.74,0-7.08-.14C928.84,383.65,931.21,383.7,933.57,383.72Z"/><path class="cls-1" d="M991.3,239.93V342.62c0,1,0,1.92-.11,2.87,0,.47-.07.95-.12,1.42a40.18,40.18,0,0,1-2.11,9.33c-3,9.4-8.35,15.66-15.09,19.79l-.07.05a40.48,40.48,0,0,1-21.06,7.2c-3.23.11-6.51.23-9.79.31h-.3c-2.55.07-5.1.12-7.64.13h-1.44c-2.36,0-4.73-.07-7.08-.14h-.17c-2.55-.07-5.09-.16-7.6-.25a40,40,0,0,1-22.78-7c-6.84-4-12.21-10.08-15.27-19.23a40,40,0,0,1-2.42-10.21c0-.45-.09-.91-.13-1.37v-.05c-.07-.95-.11-1.91-.11-2.87V239.93a40.7,40.7,0,0,1,40.71-40.71C951.44,197.71,989.06,197.4,991.3,239.93Z"/></g></g></svg>